<?xml version="1.0" encoding="utf-8"?>
<!-- Generator: Adobe Illustrator 26.0.1, SVG Export Plug-In . SVG Version: 6.00 Build 0)  -->
<svg version="1.1" id="图层_1" xmlns="http://www.w3.org/2000/svg" xmlns:xlink="http://www.w3.org/1999/xlink" x="0px" y="0px"
	 viewBox="0 0 360.9 223.3" style="enable-background:new 0 0 360.9 223.3;" xml:space="preserve">
<style type="text/css">
	.st0{fill:#5A78EC;}
	.st1{clip-path:url(#SVGID_00000083774078135834005560000007839101185815315874_);fill:#4D6BCE;}
	.st2{fill:#3A59AF;}
	.st3{fill:#FFFFFF;}
	.st4{fill:#232323;}
</style>
<g>
	<g>
		<g>
			<path id="SVGID_1_" class="st0" d="M8.8,6.9C3.9,6.9,0,10.9,0,15.7v179.9c0,0-0.1,29.2,11.9,27.7h261.2V15.7
				c0-4.8-3.9-8.8-8.8-8.8H8.8z"/>
		</g>
		<g>
			<defs>
				<path id="SVGID_00000091699933673785917020000018069929167441607323_" d="M8.8,6.9C3.9,6.9,0,10.9,0,15.7v179.9
					c0,0-0.1,29.2,11.9,27.7h261.2V15.7c0-4.8-3.9-8.8-8.8-8.8H8.8z"/>
			</defs>
			<clipPath id="SVGID_00000177474187637858778510000003922854714034563480_">
				<use xlink:href="#SVGID_00000091699933673785917020000018069929167441607323_"  style="overflow:visible;"/>
			</clipPath>
			
				<rect x="-34.1" y="142.7" style="clip-path:url(#SVGID_00000177474187637858778510000003922854714034563480_);fill:#4D6BCE;" width="332.3" height="134.6"/>
		</g>
	</g>
	<path class="st0" d="M360.9,223.3c0,0-3.9-46.2-43.6-70.3H72.8c0,0,46.8,4,59.2,70.3H360.9z"/>
	<path class="st2" d="M24.9,223.3c0,0,16.8,1.9,21.2-37.1c3.9-34.8,34-33.2,34-33.2s47.3-2,51.9,70.3H24.9z"/>
	<path class="st3" d="M224,51.1H29.2c-2.4,0-4.3-1.9-4.3-4.3v-8.9c0-2.4,1.9-4.3,4.3-4.3H224c2.4,0,4.3,1.9,4.3,4.3v8.9
		C228.2,49.2,226.3,51.1,224,51.1z"/>
	<path class="st3" d="M167.4,78.3H29.2c-2.4,0-4.3-1.9-4.3-4.3v-8.9c0-2.4,1.9-4.3,4.3-4.3h138.2c2.4,0,4.3,1.9,4.3,4.3v8.9
		C171.7,76.4,169.8,78.3,167.4,78.3z"/>
	<path class="st3" d="M110.6,91.7H26.4c-0.8,0-1.4-0.6-1.4-1.4v-0.7c0-0.8,0.6-1.4,1.4-1.4h84.2c0.8,0,1.4,0.6,1.4,1.4v0.7
		C112.1,91,111.4,91.7,110.6,91.7z"/>
	<path class="st3" d="M222.2,166H138c-0.8,0-1.4-0.6-1.4-1.4v-0.7c0-0.8,0.6-1.4,1.4-1.4h84.2c0.8,0,1.4,0.6,1.4,1.4v0.7
		C223.7,165.4,223,166,222.2,166z"/>
	<path class="st3" d="M268.6,175.1H142.6c-0.8,0-1.4-0.6-1.4-1.4V173c0-0.8,0.6-1.4,1.4-1.4h126.1c0.8,0,1.4,0.6,1.4,1.4v0.7
		C270.1,174.5,269.4,175.1,268.6,175.1z"/>
	<path class="st3" d="M250.6,186.3h-102c-0.8,0-1.4-0.6-1.4-1.4v-0.7c0-0.8,0.6-1.4,1.4-1.4h102c0.8,0,1.4,0.6,1.4,1.4v0.7
		C252.1,185.6,251.4,186.3,250.6,186.3z"/>
	<path class="st3" d="M53.8,101.4H26.4c-0.8,0-1.4-0.6-1.4-1.4v-0.7c0-0.8,0.6-1.4,1.4-1.4h27.5c0.8,0,1.4,0.6,1.4,1.4v0.7
		C55.3,100.8,54.6,101.4,53.8,101.4z"/>
	<path class="st3" d="M153.6,101.4H64.8c-0.8,0-1.4-0.6-1.4-1.4v-0.7c0-0.8,0.6-1.4,1.4-1.4h88.8c0.8,0,1.4,0.6,1.4,1.4v0.7
		C155.1,100.8,154.4,101.4,153.6,101.4z"/>
	<path class="st3" d="M83.4,111.2h-57c-0.8,0-1.4-0.6-1.4-1.4v-0.7c0-0.8,0.6-1.4,1.4-1.4h57c0.8,0,1.4,0.6,1.4,1.4v0.7
		C84.9,110.6,84.2,111.2,83.4,111.2z"/>
	<path class="st3" d="M106.8,111.2h-11c-0.8,0-1.4-0.6-1.4-1.4v-0.7c0-0.8,0.6-1.4,1.4-1.4h11c0.8,0,1.4,0.6,1.4,1.4v0.7
		C108.3,110.6,107.6,111.2,106.8,111.2z"/>
	<path class="st3" d="M32.8,121h-6.4c-0.8,0-1.4-0.6-1.4-1.4v-0.7c0-0.8,0.6-1.4,1.4-1.4h6.4c0.8,0,1.4,0.6,1.4,1.4v0.7
		C34.2,120.4,33.6,121,32.8,121z"/>
	<path class="st3" d="M76,121H41.5c-0.8,0-1.4-0.6-1.4-1.4v-0.7c0-0.8,0.6-1.4,1.4-1.4H76c0.8,0,1.4,0.6,1.4,1.4v0.7
		C77.5,120.4,76.8,121,76,121z"/>
	<path class="st3" d="M311.4,178.2l2.1,4.7c0.2,0.4,0.6,0.8,1.1,0.8l4.8,0.7c1.1,0.2,1.6,1.7,0.8,2.6l-3.5,3.6
		c-0.3,0.3-0.5,0.8-0.4,1.3l0.8,5.1c0.2,1.2-1,2.2-2,1.6l-4.3-2.4c-0.4-0.2-0.9-0.2-1.3,0l-4.3,2.4c-1,0.6-2.2-0.4-2-1.6l0.8-5.1
		c0.1-0.5-0.1-1-0.4-1.3l-3.5-3.6c-0.8-0.9-0.4-2.4,0.8-2.6l4.8-0.7c0.5-0.1,0.9-0.4,1.1-0.8l2.1-4.7
		C309.4,177.1,310.9,177.1,311.4,178.2z"/>
	<path class="st4" d="M11.9,190.4c-0.5,0-0.9-0.4-0.9-0.9V10.2C11.1,4.6,15.6,0,21.2,0h253.1c5.6,0,10.1,4.5,10.1,10.1v139.1
		c0,0.5-0.4,0.9-0.9,0.9s-0.9-0.4-0.9-0.9V10.1c0-4.6-3.7-8.4-8.4-8.4H21.2c-4.7,0-8.5,3.8-8.5,8.5v179.3
		C12.8,190,12.4,190.4,11.9,190.4z"/>
</g>
</svg>
